<svg width="40" height="40" viewBox="0 0 40 40" fill="none" xmlns="http://www.w3.org/2000/svg">
<g clip-path="url(#clip0_388_3922)">
<path d="M40 20C40 8.9543 31.0457 0 20 0C8.9543 0 0 8.9543 0 20C0 31.0457 8.9543 40 20 40C31.0457 40 40 31.0457 40 20Z" fill="#5D8CF7"/>
<path fill-rule="evenodd" clip-rule="evenodd" d="M20 10C19.4477 10 19 10.4477 19 11V18C19 18.5523 19.4477 19 20 19C20.5523 19 21 18.5523 21 18V11C21 10.4477 20.5523 10 20 10ZM15.8535 13.8327C16.3134 13.5269 16.4383 12.9062 16.1325 12.4463C15.8267 11.9864 15.206 11.8615 14.7461 12.1673C12.1889 13.8675 10.5 16.778 10.5 20.0833C10.5 25.33 14.7533 29.5833 20 29.5833C25.2467 29.5833 29.5 25.33 29.5 20.0833C29.5 16.778 27.8111 13.8675 25.2539 12.1673C24.794 11.8615 24.1733 11.9864 23.8675 12.4463C23.5617 12.9062 23.6866 13.5269 24.1465 13.8327C26.1699 15.1781 27.5 17.4756 27.5 20.0833C27.5 24.2255 24.1421 27.5833 20 27.5833C15.8579 27.5833 12.5 24.2255 12.5 20.0833C12.5 17.4756 13.8301 15.1781 15.8535 13.8327Z" fill="white"/>
</g>
<defs>
<clipPath id="clip0_388_3922">
<rect width="40" height="40" fill="white"/>
</clipPath>
</defs>
</svg>
